<svg width="18156" height="6580" viewBox="0 0 18156 6580" fill="none" xmlns="http://www.w3.org/2000/svg">
<path d="M5564.73 589.28L5376.57 1532.39L5432.2 1580.8L5710.76 531.85L5564.73 589.28Z" fill="#F2C91D"/>
<path d="M5879.67 486.276L5518.8 1544.27L5564.21 1739.03L6133.35 592.996L6053.37 407.284L5879.67 486.276Z" fill="#F2C91D"/>
<path d="M6216.62 739.198L5710.75 1604.06L5676.48 1776.25L6277.34 893.462L6216.62 739.198Z" fill="#F2C91D"/>
<path d="M4224.75 750.886L4687.65 1593.85L4761.39 1595.1L4299.57 612.952L4224.75 750.886Z" fill="#F2C91D"/>
<path d="M4399.53 469.368L4804.16 1511.41L4964.25 1631.26L4662.37 387.809L4481.65 297.129L4399.53 469.368Z" fill="#F2C91D"/>
<path d="M4820.2 446.124L4989.56 1433.65L5074.14 1587.51L4965.95 525.125L4820.2 446.124Z" fill="#F2C91D"/>
<path d="M3344 1807.74L4240.78 2155.07L4298.03 2108.58L3312.5 1654.01L3344 1807.74Z" fill="#F2C91D"/>
<path d="M3296.61 1479.78L4276.91 2016.99L4476.57 2005.71L3445.31 1248.21L3248.63 1295.1L3296.61 1479.78Z" fill="#F2C91D"/>
<path d="M3603.64 1191.28L4368.78 1838.17L4532.53 1901.5L3766.05 1157.95L3603.64 1191.28Z" fill="#F2C91D"/>
<path d="M3267.11 3097.36L4177.05 2786.12L4190.95 2713.69L3144.08 2999.97L3267.11 3097.36Z" fill="#F2C91D"/>
<path d="M3019.79 2876.83L4115.84 2657.18L4261.41 2520.05L2984.59 2603.89L2864.22 2766.36L3019.79 2876.83Z" fill="#F2C91D"/>
<path d="M3069.14 2458.42L4071.08 2461.18L4237.18 2404.28L3172 2328.4L3069.14 2458.42Z" fill="#F2C91D"/>
<path d="M4045.2 4161.95L4541.39 3338.15L4505.42 3273.77L3888.35 4166.58L4045.2 4161.95Z" fill="#F2C91D"/>
<path d="M3713.98 4152.31L4411.56 3278.84L4434.74 3080.2L3511.38 3966.05L3523.8 4167.87L3713.98 4152.31Z" fill="#F2C91D"/>
<path d="M3482.49 3800.29L4251.18 3157.63L4341.69 3007.19L3477.55 3634.58L3482.49 3800.29Z" fill="#F2C91D"/>
<path d="M5324.14 4501.55L5262.68 3541.82L5196.44 3509.4L5197.86 4594.7L5324.14 4501.55Z" fill="#F2C91D"/>
<path d="M5046.42 4682.3L5122.2 3567.03L5028.09 3390.57L4773.81 4644.62L4898.98 4803.42L5046.42 4682.3Z" fill="#F2C91D"/>
<path d="M4655.64 4524.85L4921.33 3558.77L4910.02 3383.56L4557.18 4391.46L4655.64 4524.85Z" fill="#F2C91D"/>
<path d="M6650.48 3810.67L5924.12 3180.37L5854.52 3204.75L6628.1 3965.99L6650.48 3810.67Z" fill="#F2C91D"/>
<path d="M6584.09 4135.32L5843.4 3298.08L5651.7 3241.14L6365.8 4302.91L6566.76 4325.34L6584.09 4135.32Z" fill="#F2C91D"/>
<path d="M6197.55 4302.91L5696.45 3435.27L5563.79 3320.27L6033.45 4279.32L6197.55 4302.91Z" fill="#F2C91D"/>
<path d="M7167.4 2531.94L6205.82 2516.92L6168.24 2580.38L7250.22 2665.22L7167.4 2531.94Z" fill="#F2C91D"/>
<path d="M7325.51 2823.15L6219.78 2658.97L6036.4 2738.75L7266.28 3091.91L7434.52 2979.75L7325.51 2823.15Z" fill="#F2C91D"/>
<path d="M7137.49 3200.18L6195.58 2858.55L6020.03 2855.89L6996.7 3287.72L7137.49 3200.18Z" fill="#F2C91D"/>
<path d="M6726.65 1263.94L5980.98 1871.25L5993.04 1944.01L6875.82 1312.66L6726.65 1263.94Z" fill="#F2C91D"/>
<path d="M7035.08 1385.09L6083.08 1970.99L5994.05 2150.07L7162.69 1628.92L7219.3 1434.81L7035.08 1385.09Z" fill="#F2C91D"/>
<path d="M7133.79 1794.68L6192.99 2139.33L6056.91 2250.26L7082.37 1952.28L7133.79 1794.68Z" fill="#F2C91D"/>
<circle cx="5241.08" cy="2559.46" r="1116.07" transform="rotate(4.77313 5241.08 2559.46)" fill="#F2C91D"/>
<mask id="path-11-outside-1_7_17" maskUnits="userSpaceOnUse" x="-0.996094" y="1512.41" width="7052" height="4653" fill="black">
<rect fill="white" x="-0.996094" y="1512.41" width="7052" height="4653"/>
<path d="M339.522 5260.41C335.522 5251.21 277.189 5199.24 248.522 5174.41V5164.91C259.355 5165.91 281.722 5168.01 284.522 5168.41C287.322 5168.81 309.022 5160.57 319.522 5156.41C322.189 5149.07 327.522 5133.81 327.522 5131.41C327.522 5129.01 316.189 5107.74 310.522 5097.41C283.855 5090.24 230.422 5075.01 230.022 5071.41C229.522 5066.91 239.522 5002.91 243.022 4999.91C246.522 4996.91 365.022 4971.41 368.022 4970.41C370.422 4969.61 450.689 4907.07 490.522 4875.91C503.855 4847.07 530.922 4788.91 532.522 4786.91C534.122 4784.91 535.522 4712.41 536.022 4676.41C565.855 4645.91 626.122 4584.51 628.522 4582.91C630.922 4581.31 712.522 4571.91 753.022 4567.41V4511.91L809.022 4503.91L842.022 4427.41L832.522 4391.41L821.022 4378.91L846.022 4326.41L916.022 4334.91L939.522 4312.41L973.022 4306.41L991.022 4326.41L1028.02 4306.41L1121.52 4221.41L1235.52 4216.41L1254.52 4229.91L1290.52 4237.91L1357.52 4192.41L1371.52 4163.91V4134.91L1328.52 4097.41L1319.52 4077.41L1340.02 4048.91V4014.91C1340.02 4009.41 1296.52 3954.41 1293.52 3942.91C1290.52 3931.41 1300.52 3870.41 1304.02 3868.41C1306.82 3866.81 1328.19 3848.07 1338.52 3838.91L1318.52 3783.91V3762.91C1320.19 3760.74 1326.52 3755.31 1338.52 3750.91C1350.52 3746.51 1380.52 3727.07 1394.02 3717.91V3688.91L1402.02 3672.41C1411.36 3670.24 1430.82 3665.61 1434.02 3664.41C1437.22 3663.21 1527.36 3568.57 1572.02 3521.41V3493.91L1575.52 3483.41C1581.86 3480.74 1595.22 3475.21 1598.02 3474.41C1600.82 3473.61 1619.19 3432.07 1628.02 3411.41L1612.02 3362.41L1616.02 3343.41C1631.02 3328.57 1661.02 3298.11 1661.02 3294.91V3226.41L1630.02 3185.91L1625.02 3164.91L1640.52 3123.91L1708.02 3064.41C1743.86 3054.41 1816.42 3034.01 1820.02 3032.41C1823.62 3030.81 1844.19 3002.07 1854.02 2987.91L1857.02 2972.91L1821.52 2918.91L1804.52 2900.91L1821.52 2880.91C1839.69 2874.24 1876.82 2860.91 1880.02 2860.91H1925.52L2192.02 2693.91L2210.52 2672.41V2550.41L2245.02 2519.41L2285.52 2400.41L2323.52 2379.41L2367.02 2321.91L2533.02 2096.91L2558.52 2098.91C2580.52 2083.41 2625.32 2052.21 2628.52 2051.41C2632.52 2050.41 2733.02 1929.41 2735.02 1926.91C2736.62 1924.91 2742.69 1870.07 2745.52 1842.91L2758.52 1817.91L2797.02 1782.41L2812.52 1788.91L2843.02 1792.91L2892.52 1759.41C2899.86 1760.74 2915.12 1763.61 2917.52 1764.41C2919.92 1765.21 3052.52 1802.41 3118.52 1820.91L3142.02 1846.91L3198.52 1942.91C3202.52 1941.74 3211.12 1938.81 3213.52 1936.41C3215.92 1934.01 3289.52 1884.74 3326.02 1860.41L3380.02 1854.91L3383.52 1823.91L3399.02 1799.91L3436.02 1796.41L3457.52 1806.91L3464.02 1849.41C3459.52 1864.41 3450.42 1895.71 3450.02 1900.91C3449.62 1906.11 3437.52 1969.07 3431.52 1999.91L3420.02 2025.41C3399.36 2037.74 3357.72 2062.81 3356.52 2064.41C3355.32 2066.01 3354.69 2074.07 3354.52 2077.91L3400.02 2284.41C3400.86 2289.91 3402.52 2301.81 3402.52 2305.41C3402.52 2309.91 3361.02 2356.91 3361.02 2358.91C3361.02 2360.91 3360.52 2375.91 3361.02 2379.41C3361.42 2382.21 3388.86 2437.24 3402.52 2464.41L3512.52 2477.41C3519.02 2476.74 3532.92 2474.91 3536.52 2472.91C3540.12 2470.91 3577.69 2440.41 3596.02 2425.41C3634.86 2424.07 3712.92 2421.61 3714.52 2422.41C3716.12 2423.21 3771.19 2459.74 3798.52 2477.91V2487.41L3751.02 2519.41C3740.02 2529.74 3717.92 2551.11 3717.52 2553.91C3717.12 2556.71 3695.36 2606.41 3684.52 2630.91C3684.52 2656.07 3683.42 2707.31 3679.02 2710.91C3673.52 2715.41 3644.02 2832.91 3642.02 2837.41C3640.02 2841.91 3618.02 2931.91 3615.52 2939.41C3613.02 2946.91 3550.52 3009.91 3546.02 3013.91C3542.42 3017.11 3464.19 3048.91 3425.52 3064.41L3438.52 3082.91H3464.02C3465.02 3082.91 3630.52 3046.41 3635.02 3044.91C3638.62 3043.71 3656.86 3013.74 3665.52 2998.91C3671.52 2987.24 3683.72 2963.41 3684.52 2961.41C3685.52 2958.91 3703.02 2847.41 3703.02 2845.91C3703.02 2844.71 3739.02 2777.74 3757.02 2744.41L3825.52 2636.91L3895.52 2550.41L3953.02 2523.41H3964.02L3991.02 2538.41L4016.02 2540.91L4047.52 2535.41L4129.52 2477.91L4140.02 2475.41L4174.02 2490.91H4187.02L4241.02 2441.91C4245.02 2440.74 4253.62 2438.51 4256.02 2438.91C4258.42 2439.31 4284.36 2459.41 4297.02 2469.41L4299.02 2549.91C4307.52 2557.07 4326.32 2571.81 4333.52 2573.41C4342.52 2575.41 4403.02 2574.91 4406.02 2573.41C4408.42 2572.21 4426.69 2538.24 4435.52 2521.41C4443.36 2516.07 4462.42 2504.81 4476.02 2502.41C4493.02 2499.41 4542.02 2495.41 4544.52 2497.41C4547.02 2499.41 4646.52 2588.41 4647.52 2590.91C4648.32 2592.91 4700.86 2616.07 4727.02 2627.41C4741.86 2630.91 4771.92 2637.81 4773.52 2637.41C4775.12 2637.01 4807.52 2625.91 4823.52 2620.41L4879.52 2557.91C4883.19 2536.41 4890.82 2493.11 4892.02 2491.91C4893.22 2490.71 4924.52 2486.74 4940.02 2484.91L4944.52 2489.91L4940.02 2536.41L4915.02 2557.91V2571.41L4965.52 2598.41L4974.02 2600.41L5009.52 2547.91C5011.36 2547.57 5015.82 2547.11 5019.02 2547.91C5022.22 2548.71 5065.69 2570.24 5087.02 2580.91L5078.02 2635.91L5083.52 2667.41C5107.52 2667.07 5156.02 2666.61 5158.02 2667.41C5160.02 2668.21 5170.86 2696.07 5176.02 2709.91L5152.52 2727.41L5150.52 2741.41H5213.52C5215.12 2741.41 5265.52 2709.41 5290.52 2693.41L5302.02 2655.91C5303.02 2654.57 5305.72 2652.21 5308.52 2653.41C5311.32 2654.61 5359.02 2692.57 5382.52 2711.41C5385.52 2712.57 5391.82 2714.91 5393.02 2714.91C5394.22 2714.91 5440.86 2680.57 5464.02 2663.41H5481.02L5501.02 2685.91C5501.69 2689.41 5503.02 2696.81 5503.02 2698.41C5503.02 2700.01 5473.02 2726.41 5458.02 2739.41L5460.02 2749.91C5469.52 2760.07 5488.82 2781.11 5490.02 2783.91C5491.22 2786.71 5497.86 2838.07 5501.02 2863.41C5515.69 2869.57 5545.82 2882.11 5549.02 2882.91C5552.22 2883.71 5613.02 2949.57 5643.02 2982.41C5656.36 2986.41 5684.12 2994.91 5688.52 2996.91C5694.02 2999.41 5801.52 3064.91 5804.02 3064.91H5874.02C5894.69 3047.24 5937.72 3011.01 5944.52 3007.41C5951.32 3003.81 6002.02 2986.91 6026.52 2978.91L6059.02 3010.41C6059.19 3013.07 6059.42 3018.71 6059.02 3019.91C6058.62 3021.11 6034.19 3049.07 6022.02 3062.91C6022.36 3065.91 6023.22 3072.51 6024.02 3074.91C6024.82 3077.31 6070.02 3134.91 6092.52 3163.41C6096.69 3163.74 6105.42 3164.21 6107.02 3163.41C6109.02 3162.41 6160.02 3116.91 6163.02 3116.41C6166.02 3115.91 6244.02 3114.41 6245.52 3114.91C6247.02 3115.41 6261.52 3138.41 6261.52 3140.91C6261.52 3142.91 6241.52 3160.07 6231.52 3168.41V3179.91C6241.52 3190.24 6261.82 3211.71 6263.02 3214.91C6264.22 3218.11 6262.52 3273.91 6261.52 3301.41L6224.52 3334.91C6224.36 3337.57 6224.12 3343.41 6224.52 3345.41C6224.92 3347.41 6258.69 3395.57 6275.52 3419.41C6277.69 3420.57 6282.32 3423.01 6283.52 3423.41C6284.72 3423.81 6326.36 3407.91 6347.02 3399.91C6350.69 3401.91 6358.22 3406.41 6359.02 3408.41C6360.02 3410.91 6379.02 3486.91 6383.52 3495.41C6388.02 3503.91 6446.02 3561.41 6451.52 3563.41C6455.92 3565.01 6507.36 3556.07 6532.52 3551.41L6545.52 3563.41C6545.86 3567.91 6546.32 3577.61 6545.52 3580.41C6544.72 3583.21 6492.19 3641.91 6466.02 3670.91C6466.19 3676.41 6467.02 3688.51 6469.02 3692.91C6471.02 3697.31 6517.52 3724.41 6540.52 3737.41C6544.19 3738.41 6551.92 3740.41 6553.52 3740.41C6555.12 3740.41 6593.19 3718.74 6612.02 3707.91H6627.52L6655.52 3744.91C6656.19 3748.07 6657.52 3754.71 6657.52 3755.91C6657.52 3757.41 6616.52 3800.41 6617.52 3801.91C6618.32 3803.11 6632.86 3831.74 6640.02 3845.91V3930.41C6641.02 3933.07 6644.22 3940.61 6649.02 3949.41C6653.82 3958.21 6737.36 3972.07 6778.52 3977.91C6792.69 3995.57 6820.92 4031.61 6820.52 4034.41C6820.02 4037.91 6795.52 4096.91 6793.02 4101.41C6790.52 4105.91 6740.02 4111.91 6736.52 4114.91C6733.02 4117.91 6638.02 4189.91 6637.02 4192.41C6636.22 4194.41 6610.36 4242.24 6597.52 4265.91C6586.19 4288.07 6563.22 4333.01 6562.02 4335.41C6560.52 4338.41 6513.02 4361.41 6512.52 4363.91C6512.12 4365.91 6510.69 4406.07 6510.02 4425.91L6480.02 4622.41C6469.86 4685.57 6449.52 4812.51 6449.52 4814.91V4846.41C6456.02 4850.91 6469.22 4860.61 6470.02 4863.41C6470.82 4866.21 6467.36 4902.91 6465.52 4920.91C6462.52 4927.91 6456.32 4942.51 6455.52 4944.91C6454.72 4947.31 6405.19 5068.57 6380.52 5128.91C6375.36 5137.41 6364.52 5154.81 6362.52 5156.41C6360.52 5158.01 6249.69 5209.74 6194.52 5235.41C6189.36 5240.24 6178.72 5250.21 6177.52 5251.41C6176.32 5252.61 6176.02 5315.57 6176.02 5346.91L6131.02 5368.91L6110.02 5364.41C6096.02 5353.74 6067.02 5331.81 6063.02 5329.41C6059.02 5327.01 5984.02 5294.41 5947.02 5278.41H5929.02C5910.19 5286.07 5871.72 5301.71 5868.52 5302.91C5864.52 5304.41 5767.02 5300.41 5763.52 5301.41C5760.72 5302.21 5701.69 5276.07 5672.52 5262.91L5667.52 5229.41L5660.52 5216.41L5601.02 5198.41H5582.52C5580.52 5198.41 5544.02 5226.41 5526.02 5240.41C5496.69 5258.91 5437.82 5296.01 5437.02 5296.41C5436.22 5296.81 5375.02 5355.91 5344.52 5385.41C5326.52 5393.24 5290.02 5408.91 5288.02 5408.91C5286.02 5408.91 5183.86 5410.91 5133.02 5411.91L5123.52 5433.91C5122.19 5435.07 5119.12 5437.71 5117.52 5438.91C5115.92 5440.11 5085.19 5443.07 5070.02 5444.41L4974.52 5533.91C4967.02 5535.91 4951.12 5539.81 4947.52 5539.41C4943.92 5539.01 4912.36 5531.91 4897.02 5528.41C4881.86 5531.57 4851.22 5538.01 4850.02 5538.41C4848.52 5538.91 4797.02 5593.41 4796.02 5594.41C4795.22 5595.21 4780.69 5599.07 4773.52 5600.91L4723.02 5597.41C4719.36 5597.91 4711.42 5599.31 4709.02 5600.91C4706.62 5602.51 4685.02 5626.24 4674.52 5637.91C4670.52 5637.41 4661.92 5636.31 4659.52 5635.91C4657.12 5635.51 4619.86 5615.41 4601.52 5605.41C4598.69 5604.91 4592.72 5603.81 4591.52 5603.41C4590.02 5602.91 4553.52 5615.91 4549.52 5613.91C4546.32 5612.31 4489.52 5564.91 4461.52 5541.41L4449.02 5538.91C4437.52 5543.41 4414.02 5552.71 4412.02 5553.91C4410.02 5555.11 4337.86 5563.07 4302.02 5566.91L4294.52 5560.91V5484.41C4293.52 5483.74 4291.12 5482.21 4289.52 5481.41C4287.92 5480.61 4255.19 5488.74 4239.02 5492.91C4234.02 5491.91 4223.52 5489.71 4221.52 5488.91C4219.52 5488.11 4185.36 5457.91 4168.52 5442.91L4166.52 5432.91L4180.52 5416.91C4174.19 5404.24 4161.22 5378.51 4160.02 5376.91C4158.52 5374.91 4088.52 5315.91 4086.02 5313.91C4083.52 5311.91 4039.52 5315.41 4036.02 5315.91C4032.52 5316.41 3990.52 5282.91 3989.02 5282.91C3987.52 5282.91 3980.52 5282.41 3979.02 5282.91C3977.52 5283.41 3935.52 5324.41 3932.02 5326.91C3929.22 5328.91 3880.19 5327.74 3856.02 5326.91C3843.36 5342.91 3817.52 5375.31 3815.52 5376.91C3813.52 5378.51 3730.02 5408.24 3688.52 5422.91C3685.86 5422.74 3680.02 5422.51 3678.02 5422.91C3675.52 5423.41 3636.02 5396.41 3634.52 5396.41C3633.32 5396.41 3625.69 5395.07 3622.02 5394.41L3538.02 5424.91C3534.52 5426.74 3524.22 5430.31 3511.02 5429.91C3497.82 5429.51 3446.52 5436.07 3422.52 5439.41L3386.52 5464.91C3384.36 5466.07 3379.02 5468.41 3375.02 5468.41C3371.02 5468.41 3348.36 5452.07 3337.52 5443.91C3335.02 5443.74 3329.22 5443.51 3326.02 5443.91C3322.02 5444.41 3292.52 5464.91 3285.02 5464.91C3277.52 5464.91 3194.02 5465.41 3191.52 5464.91C3189.52 5464.51 3164.36 5429.07 3152.02 5411.41L3133.52 5407.91C3125.69 5410.74 3108.42 5417.41 3102.02 5421.41C3095.62 5425.41 3023.02 5400.74 2987.52 5387.91C2984.69 5396.41 2978.02 5415.01 2974.02 5421.41C2970.02 5427.81 2918.02 5455.74 2892.52 5468.91V5491.91V5551.91L2800.52 5666.91H2678.02L2637.02 5710.41L2560.02 5745.41L2498.52 5779.41L2483.52 5856.41H2440.02L2412.02 5881.91L2373.52 5902.41L2337.52 5881.91L2268.52 5810.41H2222.52C2200.36 5820.57 2152.92 5841.41 2140.52 5843.41C2128.12 5845.41 2079.02 5801.57 2056.02 5779.41L2038.52 5810.41C1969.52 5788.74 1828.82 5745.41 1818.02 5745.41C1807.22 5745.41 1540.19 5539.74 1408.02 5436.91C1399.36 5431.91 1380.92 5421.51 1376.52 5419.91C1372.12 5418.31 1249.02 5497.24 1188.02 5536.91L1035.52 5491.91L949.022 5380.91C849.355 5352.07 647.422 5292.51 637.022 5284.91C626.622 5277.31 440.022 5288.07 348.022 5294.41C346.855 5286.91 343.522 5269.61 339.522 5260.41Z"/>
</mask>
<path d="M339.522 5260.41C335.522 5251.21 277.189 5199.24 248.522 5174.41V5164.91C259.355 5165.91 281.722 5168.01 284.522 5168.41C287.322 5168.81 309.022 5160.57 319.522 5156.41C322.189 5149.07 327.522 5133.81 327.522 5131.41C327.522 5129.01 316.189 5107.74 310.522 5097.41C283.855 5090.24 230.422 5075.01 230.022 5071.41C229.522 5066.91 239.522 5002.91 243.022 4999.91C246.522 4996.91 365.022 4971.41 368.022 4970.41C370.422 4969.61 450.689 4907.07 490.522 4875.91C503.855 4847.07 530.922 4788.91 532.522 4786.91C534.122 4784.91 535.522 4712.41 536.022 4676.41C565.855 4645.91 626.122 4584.51 628.522 4582.91C630.922 4581.31 712.522 4571.91 753.022 4567.41V4511.91L809.022 4503.91L842.022 4427.41L832.522 4391.41L821.022 4378.91L846.022 4326.41L916.022 4334.91L939.522 4312.41L973.022 4306.41L991.022 4326.41L1028.02 4306.41L1121.52 4221.41L1235.52 4216.41L1254.52 4229.91L1290.52 4237.91L1357.52 4192.41L1371.52 4163.91V4134.91L1328.52 4097.41L1319.52 4077.41L1340.02 4048.91V4014.91C1340.02 4009.41 1296.52 3954.41 1293.52 3942.91C1290.52 3931.41 1300.52 3870.41 1304.02 3868.41C1306.82 3866.81 1328.19 3848.07 1338.52 3838.91L1318.52 3783.91V3762.91C1320.19 3760.74 1326.52 3755.31 1338.52 3750.91C1350.52 3746.51 1380.52 3727.07 1394.02 3717.91V3688.91L1402.02 3672.41C1411.36 3670.24 1430.82 3665.61 1434.02 3664.41C1437.22 3663.21 1527.36 3568.57 1572.02 3521.41V3493.91L1575.52 3483.41C1581.86 3480.74 1595.22 3475.21 1598.02 3474.41C1600.82 3473.61 1619.19 3432.07 1628.02 3411.41L1612.02 3362.41L1616.02 3343.41C1631.02 3328.57 1661.02 3298.11 1661.02 3294.91V3226.41L1630.02 3185.91L1625.02 3164.91L1640.52 3123.91L1708.02 3064.41C1743.86 3054.41 1816.42 3034.01 1820.02 3032.41C1823.62 3030.81 1844.19 3002.07 1854.02 2987.91L1857.02 2972.91L1821.52 2918.91L1804.52 2900.91L1821.52 2880.91C1839.69 2874.24 1876.82 2860.91 1880.02 2860.91H1925.52L2192.02 2693.91L2210.52 2672.41V2550.41L2245.02 2519.41L2285.52 2400.41L2323.52 2379.41L2367.02 2321.91L2533.02 2096.91L2558.52 2098.91C2580.52 2083.41 2625.32 2052.21 2628.52 2051.41C2632.52 2050.41 2733.02 1929.41 2735.02 1926.91C2736.62 1924.91 2742.69 1870.07 2745.52 1842.91L2758.52 1817.91L2797.02 1782.41L2812.52 1788.91L2843.02 1792.91L2892.52 1759.41C2899.86 1760.74 2915.12 1763.61 2917.52 1764.41C2919.92 1765.21 3052.52 1802.41 3118.52 1820.91L3142.02 1846.91L3198.52 1942.91C3202.52 1941.74 3211.12 1938.81 3213.52 1936.41C3215.92 1934.01 3289.52 1884.74 3326.02 1860.41L3380.02 1854.91L3383.52 1823.91L3399.02 1799.91L3436.02 1796.41L3457.52 1806.91L3464.02 1849.41C3459.52 1864.41 3450.42 1895.71 3450.02 1900.91C3449.62 1906.11 3437.52 1969.07 3431.52 1999.91L3420.02 2025.41C3399.36 2037.74 3357.72 2062.81 3356.52 2064.41C3355.32 2066.01 3354.69 2074.07 3354.52 2077.91L3400.02 2284.41C3400.86 2289.91 3402.52 2301.81 3402.52 2305.41C3402.52 2309.91 3361.02 2356.91 3361.02 2358.91C3361.02 2360.91 3360.52 2375.91 3361.02 2379.41C3361.42 2382.21 3388.86 2437.24 3402.52 2464.41L3512.52 2477.41C3519.02 2476.74 3532.92 2474.91 3536.52 2472.91C3540.12 2470.91 3577.69 2440.41 3596.02 2425.41C3634.86 2424.07 3712.92 2421.61 3714.52 2422.41C3716.12 2423.21 3771.19 2459.74 3798.52 2477.91V2487.41L3751.02 2519.41C3740.02 2529.74 3717.92 2551.11 3717.52 2553.91C3717.12 2556.71 3695.36 2606.41 3684.52 2630.91C3684.52 2656.07 3683.42 2707.31 3679.02 2710.91C3673.52 2715.41 3644.02 2832.91 3642.02 2837.41C3640.02 2841.91 3618.02 2931.91 3615.52 2939.41C3613.02 2946.91 3550.52 3009.91 3546.02 3013.91C3542.42 3017.11 3464.19 3048.91 3425.52 3064.41L3438.52 3082.91H3464.02C3465.02 3082.91 3630.52 3046.41 3635.02 3044.91C3638.62 3043.71 3656.86 3013.74 3665.52 2998.91C3671.52 2987.24 3683.72 2963.41 3684.52 2961.41C3685.52 2958.91 3703.02 2847.41 3703.02 2845.91C3703.02 2844.71 3739.02 2777.74 3757.02 2744.41L3825.52 2636.91L3895.52 2550.41L3953.02 2523.41H3964.02L3991.02 2538.41L4016.02 2540.91L4047.52 2535.41L4129.52 2477.91L4140.02 2475.41L4174.02 2490.91H4187.02L4241.02 2441.91C4245.02 2440.74 4253.62 2438.51 4256.02 2438.91C4258.42 2439.31 4284.36 2459.41 4297.02 2469.41L4299.02 2549.91C4307.52 2557.07 4326.32 2571.81 4333.52 2573.41C4342.52 2575.41 4403.02 2574.91 4406.02 2573.41C4408.42 2572.21 4426.69 2538.24 4435.52 2521.41C4443.36 2516.07 4462.42 2504.81 4476.02 2502.41C4493.02 2499.41 4542.02 2495.41 4544.52 2497.41C4547.02 2499.41 4646.52 2588.41 4647.52 2590.91C4648.32 2592.91 4700.86 2616.07 4727.02 2627.41C4741.86 2630.91 4771.92 2637.81 4773.52 2637.41C4775.12 2637.01 4807.52 2625.91 4823.52 2620.41L4879.52 2557.91C4883.19 2536.41 4890.82 2493.11 4892.02 2491.91C4893.22 2490.71 4924.52 2486.74 4940.02 2484.91L4944.52 2489.91L4940.02 2536.41L4915.02 2557.91V2571.41L4965.52 2598.41L4974.02 2600.41L5009.52 2547.91C5011.36 2547.57 5015.82 2547.11 5019.02 2547.91C5022.22 2548.71 5065.69 2570.24 5087.02 2580.91L5078.02 2635.91L5083.52 2667.41C5107.52 2667.07 5156.02 2666.61 5158.02 2667.41C5160.02 2668.21 5170.86 2696.07 5176.02 2709.91L5152.52 2727.41L5150.52 2741.41H5213.52C5215.12 2741.41 5265.52 2709.41 5290.52 2693.41L5302.02 2655.91C5303.02 2654.57 5305.72 2652.21 5308.52 2653.41C5311.32 2654.61 5359.02 2692.57 5382.52 2711.41C5385.52 2712.57 5391.82 2714.91 5393.02 2714.91C5394.22 2714.91 5440.86 2680.57 5464.02 2663.41H5481.02L5501.02 2685.91C5501.69 2689.41 5503.02 2696.81 5503.02 2698.41C5503.02 2700.01 5473.02 2726.41 5458.02 2739.41L5460.02 2749.91C5469.52 2760.07 5488.82 2781.11 5490.02 2783.91C5491.22 2786.71 5497.86 2838.07 5501.02 2863.41C5515.69 2869.57 5545.82 2882.11 5549.02 2882.91C5552.22 2883.71 5613.02 2949.57 5643.02 2982.41C5656.36 2986.41 5684.12 2994.91 5688.52 2996.91C5694.02 2999.41 5801.52 3064.91 5804.02 3064.91H5874.02C5894.69 3047.24 5937.72 3011.01 5944.52 3007.41C5951.32 3003.81 6002.02 2986.91 6026.52 2978.91L6059.02 3010.41C6059.19 3013.07 6059.42 3018.71 6059.02 3019.91C6058.62 3021.11 6034.19 3049.07 6022.02 3062.91C6022.36 3065.91 6023.22 3072.51 6024.02 3074.91C6024.82 3077.31 6070.02 3134.91 6092.52 3163.41C6096.69 3163.74 6105.42 3164.21 6107.02 3163.41C6109.02 3162.41 6160.02 3116.91 6163.02 3116.41C6166.02 3115.91 6244.02 3114.41 6245.52 3114.91C6247.02 3115.41 6261.52 3138.41 6261.52 3140.91C6261.52 3142.91 6241.52 3160.07 6231.52 3168.41V3179.91C6241.52 3190.24 6261.82 3211.71 6263.02 3214.91C6264.22 3218.11 6262.52 3273.91 6261.52 3301.41L6224.52 3334.91C6224.36 3337.57 6224.12 3343.41 6224.52 3345.41C6224.92 3347.41 6258.69 3395.57 6275.52 3419.41C6277.69 3420.57 6282.32 3423.01 6283.52 3423.41C6284.72 3423.81 6326.36 3407.91 6347.02 3399.91C6350.69 3401.91 6358.22 3406.41 6359.02 3408.41C6360.02 3410.91 6379.02 3486.91 6383.52 3495.41C6388.02 3503.91 6446.02 3561.41 6451.52 3563.41C6455.92 3565.01 6507.36 3556.07 6532.52 3551.41L6545.52 3563.41C6545.86 3567.91 6546.32 3577.61 6545.52 3580.41C6544.72 3583.21 6492.19 3641.91 6466.02 3670.91C6466.19 3676.41 6467.02 3688.51 6469.02 3692.91C6471.02 3697.31 6517.52 3724.41 6540.52 3737.41C6544.19 3738.41 6551.92 3740.41 6553.52 3740.41C6555.12 3740.41 6593.19 3718.74 6612.02 3707.91H6627.52L6655.52 3744.91C6656.19 3748.07 6657.52 3754.71 6657.52 3755.91C6657.52 3757.41 6616.52 3800.41 6617.52 3801.91C6618.32 3803.11 6632.86 3831.74 6640.02 3845.91V3930.41C6641.02 3933.07 6644.22 3940.61 6649.02 3949.41C6653.82 3958.21 6737.36 3972.07 6778.52 3977.91C6792.69 3995.57 6820.92 4031.61 6820.52 4034.41C6820.02 4037.91 6795.52 4096.91 6793.02 4101.41C6790.52 4105.91 6740.02 4111.91 6736.52 4114.91C6733.02 4117.91 6638.02 4189.91 6637.02 4192.41C6636.22 4194.41 6610.36 4242.24 6597.52 4265.91C6586.19 4288.07 6563.22 4333.01 6562.02 4335.41C6560.52 4338.41 6513.02 4361.41 6512.52 4363.91C6512.12 4365.91 6510.69 4406.07 6510.02 4425.91L6480.02 4622.41C6469.86 4685.57 6449.52 4812.51 6449.52 4814.91V4846.41C6456.02 4850.91 6469.22 4860.61 6470.02 4863.41C6470.82 4866.21 6467.36 4902.91 6465.52 4920.91C6462.52 4927.91 6456.32 4942.51 6455.52 4944.91C6454.72 4947.31 6405.19 5068.57 6380.52 5128.91C6375.36 5137.41 6364.52 5154.81 6362.52 5156.41C6360.52 5158.01 6249.69 5209.74 6194.52 5235.41C6189.36 5240.24 6178.72 5250.21 6177.52 5251.41C6176.32 5252.61 6176.02 5315.57 6176.02 5346.91L6131.02 5368.91L6110.02 5364.41C6096.02 5353.74 6067.02 5331.81 6063.02 5329.41C6059.02 5327.01 5984.02 5294.41 5947.02 5278.41H5929.02C5910.19 5286.07 5871.72 5301.71 5868.52 5302.91C5864.52 5304.41 5767.02 5300.41 5763.52 5301.41C5760.72 5302.21 5701.69 5276.07 5672.52 5262.91L5667.52 5229.41L5660.52 5216.41L5601.02 5198.41H5582.52C5580.52 5198.41 5544.02 5226.41 5526.02 5240.41C5496.69 5258.91 5437.82 5296.01 5437.02 5296.41C5436.22 5296.81 5375.02 5355.91 5344.52 5385.41C5326.52 5393.24 5290.02 5408.91 5288.02 5408.91C5286.02 5408.91 5183.86 5410.91 5133.02 5411.91L5123.52 5433.91C5122.19 5435.07 5119.12 5437.71 5117.52 5438.91C5115.92 5440.11 5085.19 5443.07 5070.02 5444.41L4974.52 5533.91C4967.02 5535.91 4951.12 5539.81 4947.52 5539.41C4943.92 5539.01 4912.36 5531.91 4897.02 5528.41C4881.86 5531.57 4851.22 5538.01 4850.02 5538.41C4848.52 5538.91 4797.02 5593.41 4796.02 5594.41C4795.22 5595.21 4780.69 5599.07 4773.52 5600.91L4723.02 5597.41C4719.36 5597.91 4711.42 5599.31 4709.02 5600.91C4706.62 5602.51 4685.02 5626.24 4674.52 5637.91C4670.52 5637.41 4661.92 5636.31 4659.52 5635.91C4657.12 5635.51 4619.86 5615.41 4601.52 5605.41C4598.69 5604.91 4592.72 5603.81 4591.52 5603.41C4590.02 5602.91 4553.52 5615.91 4549.52 5613.91C4546.32 5612.31 4489.52 5564.91 4461.52 5541.41L4449.02 5538.91C4437.52 5543.41 4414.02 5552.71 4412.02 5553.91C4410.02 5555.11 4337.86 5563.07 4302.02 5566.91L4294.52 5560.91V5484.41C4293.52 5483.74 4291.12 5482.21 4289.52 5481.41C4287.92 5480.61 4255.19 5488.74 4239.02 5492.91C4234.02 5491.91 4223.52 5489.71 4221.52 5488.91C4219.52 5488.11 4185.36 5457.91 4168.52 5442.91L4166.52 5432.91L4180.52 5416.91C4174.19 5404.24 4161.22 5378.51 4160.02 5376.91C4158.52 5374.91 4088.52 5315.91 4086.02 5313.91C4083.52 5311.91 4039.52 5315.41 4036.02 5315.91C4032.52 5316.41 3990.52 5282.91 3989.02 5282.91C3987.52 5282.91 3980.52 5282.41 3979.02 5282.91C3977.52 5283.41 3935.52 5324.41 3932.02 5326.91C3929.22 5328.91 3880.19 5327.74 3856.02 5326.91C3843.36 5342.91 3817.52 5375.31 3815.52 5376.91C3813.52 5378.51 3730.02 5408.24 3688.52 5422.91C3685.86 5422.74 3680.02 5422.51 3678.02 5422.91C3675.52 5423.41 3636.02 5396.41 3634.52 5396.41C3633.32 5396.41 3625.69 5395.07 3622.02 5394.41L3538.02 5424.91C3534.52 5426.74 3524.22 5430.31 3511.02 5429.91C3497.82 5429.51 3446.52 5436.07 3422.52 5439.41L3386.52 5464.91C3384.36 5466.07 3379.02 5468.41 3375.02 5468.41C3371.02 5468.41 3348.36 5452.07 3337.52 5443.91C3335.02 5443.74 3329.22 5443.51 3326.02 5443.91C3322.02 5444.41 3292.52 5464.91 3285.02 5464.91C3277.52 5464.91 3194.02 5465.41 3191.52 5464.91C3189.52 5464.51 3164.36 5429.07 3152.02 5411.41L3133.52 5407.91C3125.69 5410.74 3108.42 5417.41 3102.02 5421.41C3095.62 5425.41 3023.02 5400.74 2987.52 5387.91C2984.69 5396.41 2978.02 5415.01 2974.02 5421.41C2970.02 5427.81 2918.02 5455.74 2892.52 5468.91V5491.91V5551.91L2800.52 5666.91H2678.02L2637.02 5710.41L2560.02 5745.41L2498.52 5779.41L2483.52 5856.41H2440.02L2412.02 5881.91L2373.52 5902.41L2337.52 5881.91L2268.52 5810.41H2222.52C2200.36 5820.57 2152.92 5841.41 2140.52 5843.41C2128.12 5845.41 2079.02 5801.57 2056.02 5779.41L2038.52 5810.41C1969.52 5788.74 1828.82 5745.41 1818.02 5745.41C1807.22 5745.41 1540.19 5539.74 1408.02 5436.91C1399.36 5431.91 1380.92 5421.51 1376.52 5419.91C1372.12 5418.31 1249.02 5497.24 1188.02 5536.91L1035.52 5491.91L949.022 5380.91C849.355 5352.07 647.422 5292.51 637.022 5284.91C626.622 5277.31 440.022 5288.07 348.022 5294.41C346.855 5286.91 343.522 5269.61 339.522 5260.41Z" fill="white"/>
<path d="M339.522 5260.41C335.522 5251.21 277.189 5199.24 248.522 5174.41V5164.91C259.355 5165.91 281.722 5168.01 284.522 5168.41C287.322 5168.81 309.022 5160.57 319.522 5156.41C322.189 5149.07 327.522 5133.81 327.522 5131.41C327.522 5129.01 316.189 5107.74 310.522 5097.41C283.855 5090.24 230.422 5075.01 230.022 5071.41C229.522 5066.91 239.522 5002.91 243.022 4999.91C246.522 4996.91 365.022 4971.41 368.022 4970.41C370.422 4969.61 450.689 4907.07 490.522 4875.91C503.855 4847.07 530.922 4788.91 532.522 4786.91C534.122 4784.91 535.522 4712.41 536.022 4676.41C565.855 4645.91 626.122 4584.51 628.522 4582.91C630.922 4581.31 712.522 4571.91 753.022 4567.41V4511.91L809.022 4503.91L842.022 4427.41L832.522 4391.41L821.022 4378.91L846.022 4326.41L916.022 4334.91L939.522 4312.41L973.022 4306.41L991.022 4326.41L1028.02 4306.41L1121.52 4221.41L1235.52 4216.41L1254.52 4229.91L1290.52 4237.91L1357.52 4192.41L1371.52 4163.91V4134.91L1328.52 4097.41L1319.52 4077.41L1340.02 4048.91V4014.91C1340.02 4009.41 1296.52 3954.41 1293.52 3942.91C1290.52 3931.41 1300.52 3870.41 1304.02 3868.41C1306.82 3866.81 1328.19 3848.07 1338.52 3838.91L1318.52 3783.91V3762.91C1320.19 3760.74 1326.52 3755.31 1338.52 3750.91C1350.52 3746.51 1380.52 3727.07 1394.02 3717.91V3688.91L1402.02 3672.41C1411.36 3670.24 1430.82 3665.61 1434.02 3664.41C1437.22 3663.21 1527.36 3568.57 1572.02 3521.41V3493.91L1575.52 3483.41C1581.86 3480.74 1595.22 3475.21 1598.02 3474.41C1600.82 3473.61 1619.19 3432.07 1628.02 3411.41L1612.02 3362.41L1616.02 3343.41C1631.02 3328.57 1661.02 3298.11 1661.02 3294.91V3226.41L1630.02 3185.91L1625.02 3164.91L1640.52 3123.91L1708.02 3064.41C1743.86 3054.41 1816.42 3034.01 1820.02 3032.41C1823.62 3030.81 1844.19 3002.07 1854.02 2987.91L1857.02 2972.91L1821.52 2918.91L1804.52 2900.91L1821.52 2880.91C1839.69 2874.24 1876.82 2860.91 1880.02 2860.91H1925.52L2192.02 2693.91L2210.52 2672.41V2550.41L2245.02 2519.41L2285.52 2400.41L2323.52 2379.41L2367.02 2321.91L2533.02 2096.91L2558.52 2098.91C2580.52 2083.41 2625.32 2052.21 2628.52 2051.41C2632.52 2050.41 2733.02 1929.41 2735.02 1926.91C2736.62 1924.91 2742.69 1870.07 2745.52 1842.91L2758.52 1817.91L2797.02 1782.41L2812.52 1788.91L2843.02 1792.91L2892.52 1759.41C2899.86 1760.74 2915.12 1763.61 2917.52 1764.41C2919.92 1765.21 3052.52 1802.41 3118.52 1820.91L3142.02 1846.91L3198.52 1942.91C3202.52 1941.74 3211.12 1938.81 3213.52 1936.41C3215.92 1934.01 3289.52 1884.74 3326.02 1860.41L3380.02 1854.91L3383.52 1823.91L3399.02 1799.91L3436.02 1796.41L3457.52 1806.91L3464.02 1849.41C3459.52 1864.41 3450.42 1895.71 3450.02 1900.91C3449.62 1906.11 3437.52 1969.07 3431.52 1999.91L3420.02 2025.41C3399.36 2037.74 3357.72 2062.81 3356.52 2064.41C3355.32 2066.01 3354.69 2074.07 3354.52 2077.91L3400.02 2284.41C3400.86 2289.91 3402.52 2301.81 3402.52 2305.41C3402.52 2309.91 3361.02 2356.91 3361.02 2358.91C3361.02 2360.91 3360.52 2375.91 3361.02 2379.41C3361.42 2382.21 3388.86 2437.24 3402.52 2464.41L3512.52 2477.41C3519.02 2476.74 3532.92 2474.91 3536.52 2472.91C3540.12 2470.91 3577.69 2440.41 3596.02 2425.41C3634.86 2424.07 3712.92 2421.61 3714.52 2422.41C3716.12 2423.21 3771.19 2459.74 3798.52 2477.91V2487.41L3751.02 2519.41C3740.02 2529.74 3717.92 2551.11 3717.52 2553.91C3717.12 2556.71 3695.36 2606.41 3684.52 2630.91C3684.52 2656.07 3683.42 2707.31 3679.02 2710.91C3673.52 2715.41 3644.02 2832.91 3642.02 2837.41C3640.02 2841.91 3618.02 2931.91 3615.52 2939.41C3613.02 2946.91 3550.52 3009.91 3546.02 3013.91C3542.42 3017.11 3464.19 3048.91 3425.52 3064.41L3438.52 3082.91H3464.02C3465.02 3082.91 3630.52 3046.41 3635.02 3044.91C3638.62 3043.71 3656.86 3013.74 3665.52 2998.91C3671.52 2987.24 3683.72 2963.41 3684.52 2961.41C3685.52 2958.91 3703.02 2847.41 3703.02 2845.91C3703.02 2844.71 3739.02 2777.74 3757.02 2744.41L3825.52 2636.91L3895.52 2550.41L3953.02 2523.41H3964.02L3991.02 2538.41L4016.02 2540.91L4047.52 2535.41L4129.52 2477.91L4140.02 2475.41L4174.02 2490.91H4187.02L4241.02 2441.91C4245.02 2440.74 4253.62 2438.51 4256.02 2438.91C4258.42 2439.31 4284.36 2459.41 4297.02 2469.41L4299.02 2549.91C4307.52 2557.07 4326.32 2571.81 4333.52 2573.41C4342.52 2575.41 4403.02 2574.91 4406.02 2573.41C4408.42 2572.21 4426.69 2538.24 4435.52 2521.41C4443.36 2516.07 4462.42 2504.81 4476.02 2502.41C4493.02 2499.41 4542.02 2495.41 4544.52 2497.41C4547.02 2499.41 4646.52 2588.41 4647.52 2590.91C4648.32 2592.91 4700.86 2616.07 4727.02 2627.41C4741.86 2630.91 4771.92 2637.81 4773.52 2637.41C4775.12 2637.01 4807.52 2625.91 4823.52 2620.41L4879.52 2557.91C4883.19 2536.41 4890.82 2493.11 4892.02 2491.91C4893.22 2490.71 4924.52 2486.74 4940.02 2484.91L4944.52 2489.91L4940.02 2536.41L4915.02 2557.91V2571.41L4965.52 2598.41L4974.02 2600.41L5009.52 2547.91C5011.36 2547.57 5015.82 2547.11 5019.02 2547.91C5022.22 2548.71 5065.69 2570.24 5087.02 2580.91L5078.02 2635.91L5083.52 2667.41C5107.52 2667.07 5156.02 2666.61 5158.02 2667.41C5160.02 2668.21 5170.86 2696.07 5176.02 2709.91L5152.52 2727.41L5150.52 2741.41H5213.52C5215.12 2741.41 5265.52 2709.41 5290.52 2693.41L5302.02 2655.91C5303.02 2654.57 5305.72 2652.21 5308.52 2653.41C5311.32 2654.61 5359.02 2692.57 5382.52 2711.41C5385.52 2712.57 5391.82 2714.91 5393.02 2714.91C5394.22 2714.91 5440.86 2680.57 5464.02 2663.41H5481.02L5501.02 2685.91C5501.69 2689.41 5503.02 2696.81 5503.02 2698.41C5503.02 2700.01 5473.02 2726.41 5458.02 2739.41L5460.02 2749.91C5469.52 2760.07 5488.82 2781.11 5490.02 2783.91C5491.22 2786.71 5497.86 2838.07 5501.02 2863.41C5515.69 2869.57 5545.82 2882.11 5549.02 2882.91C5552.22 2883.71 5613.02 2949.57 5643.02 2982.41C5656.36 2986.41 5684.12 2994.91 5688.52 2996.91C5694.02 2999.41 5801.52 3064.91 5804.02 3064.91H5874.02C5894.69 3047.24 5937.72 3011.01 5944.52 3007.41C5951.32 3003.81 6002.02 2986.91 6026.52 2978.91L6059.02 3010.41C6059.19 3013.07 6059.42 3018.71 6059.02 3019.91C6058.62 3021.11 6034.19 3049.07 6022.02 3062.91C6022.36 3065.91 6023.22 3072.51 6024.02 3074.91C6024.82 3077.31 6070.02 3134.91 6092.52 3163.41C6096.69 3163.74 6105.42 3164.21 6107.02 3163.41C6109.02 3162.41 6160.02 3116.91 6163.02 3116.41C6166.02 3115.91 6244.02 3114.41 6245.52 3114.91C6247.02 3115.41 6261.52 3138.41 6261.52 3140.91C6261.52 3142.91 6241.52 3160.07 6231.52 3168.41V3179.91C6241.52 3190.24 6261.82 3211.71 6263.02 3214.91C6264.22 3218.11 6262.52 3273.91 6261.52 3301.41L6224.52 3334.91C6224.36 3337.57 6224.12 3343.41 6224.52 3345.41C6224.92 3347.41 6258.69 3395.57 6275.52 3419.41C6277.69 3420.57 6282.32 3423.01 6283.52 3423.41C6284.72 3423.81 6326.36 3407.91 6347.02 3399.91C6350.69 3401.91 6358.22 3406.41 6359.02 3408.41C6360.02 3410.91 6379.02 3486.91 6383.52 3495.41C6388.02 3503.91 6446.02 3561.41 6451.52 3563.41C6455.92 3565.01 6507.36 3556.07 6532.52 3551.41L6545.52 3563.41C6545.86 3567.91 6546.32 3577.61 6545.52 3580.41C6544.72 3583.21 6492.19 3641.91 6466.02 3670.91C6466.19 3676.41 6467.02 3688.51 6469.02 3692.91C6471.02 3697.31 6517.52 3724.41 6540.52 3737.41C6544.19 3738.41 6551.92 3740.41 6553.52 3740.41C6555.12 3740.41 6593.19 3718.74 6612.02 3707.91H6627.52L6655.52 3744.91C6656.19 3748.07 6657.52 3754.71 6657.52 3755.91C6657.52 3757.41 6616.52 3800.41 6617.52 3801.91C6618.32 3803.11 6632.86 3831.74 6640.02 3845.91V3930.41C6641.02 3933.07 6644.22 3940.61 6649.02 3949.41C6653.82 3958.21 6737.36 3972.07 6778.52 3977.91C6792.69 3995.57 6820.92 4031.61 6820.52 4034.41C6820.02 4037.91 6795.52 4096.91 6793.02 4101.41C6790.52 4105.91 6740.02 4111.91 6736.52 4114.91C6733.02 4117.91 6638.02 4189.91 6637.02 4192.41C6636.22 4194.41 6610.36 4242.24 6597.52 4265.91C6586.19 4288.07 6563.22 4333.01 6562.02 4335.41C6560.52 4338.41 6513.02 4361.41 6512.52 4363.91C6512.12 4365.91 6510.69 4406.07 6510.02 4425.91L6480.02 4622.41C6469.86 4685.57 6449.52 4812.51 6449.52 4814.91V4846.41C6456.02 4850.91 6469.22 4860.61 6470.02 4863.41C6470.82 4866.21 6467.36 4902.91 6465.52 4920.91C6462.52 4927.91 6456.32 4942.51 6455.52 4944.91C6454.72 4947.31 6405.19 5068.57 6380.52 5128.91C6375.36 5137.41 6364.52 5154.81 6362.52 5156.41C6360.52 5158.01 6249.69 5209.74 6194.52 5235.41C6189.36 5240.24 6178.72 5250.21 6177.52 5251.41C6176.32 5252.61 6176.02 5315.57 6176.02 5346.91L6131.02 5368.91L6110.02 5364.41C6096.02 5353.74 6067.02 5331.81 6063.02 5329.41C6059.02 5327.01 5984.02 5294.41 5947.02 5278.41H5929.02C5910.19 5286.07 5871.72 5301.71 5868.52 5302.91C5864.52 5304.41 5767.02 5300.41 5763.52 5301.41C5760.72 5302.21 5701.69 5276.07 5672.52 5262.91L5667.52 5229.41L5660.52 5216.41L5601.02 5198.41H5582.52C5580.52 5198.41 5544.02 5226.41 5526.02 5240.41C5496.69 5258.91 5437.82 5296.01 5437.02 5296.41C5436.22 5296.81 5375.02 5355.91 5344.52 5385.41C5326.52 5393.24 5290.02 5408.91 5288.02 5408.91C5286.02 5408.91 5183.86 5410.91 5133.02 5411.91L5123.52 5433.91C5122.19 5435.07 5119.12 5437.71 5117.52 5438.91C5115.92 5440.11 5085.19 5443.07 5070.02 5444.41L4974.52 5533.91C4967.02 5535.91 4951.12 5539.81 4947.52 5539.41C4943.92 5539.01 4912.36 5531.91 4897.02 5528.41C4881.86 5531.57 4851.22 5538.01 4850.02 5538.41C4848.52 5538.91 4797.02 5593.41 4796.02 5594.41C4795.22 5595.21 4780.69 5599.07 4773.52 5600.91L4723.02 5597.41C4719.36 5597.91 4711.42 5599.31 4709.02 5600.91C4706.62 5602.51 4685.02 5626.24 4674.52 5637.91C4670.52 5637.41 4661.92 5636.31 4659.52 5635.91C4657.12 5635.51 4619.86 5615.41 4601.52 5605.41C4598.69 5604.91 4592.72 5603.81 4591.52 5603.41C4590.02 5602.91 4553.52 5615.91 4549.52 5613.91C4546.32 5612.31 4489.52 5564.91 4461.52 5541.41L4449.02 5538.91C4437.52 5543.41 4414.02 5552.71 4412.02 5553.91C4410.02 5555.11 4337.86 5563.07 4302.02 5566.91L4294.52 5560.91V5484.41C4293.52 5483.74 4291.12 5482.21 4289.52 5481.41C4287.92 5480.61 4255.19 5488.74 4239.02 5492.91C4234.02 5491.91 4223.52 5489.71 4221.52 5488.91C4219.52 5488.11 4185.36 5457.91 4168.52 5442.91L4166.52 5432.91L4180.52 5416.91C4174.19 5404.24 4161.22 5378.51 4160.02 5376.91C4158.52 5374.91 4088.52 5315.91 4086.02 5313.91C4083.52 5311.91 4039.52 5315.41 4036.02 5315.91C4032.52 5316.41 3990.52 5282.91 3989.02 5282.91C3987.52 5282.91 3980.52 5282.41 3979.02 5282.91C3977.52 5283.41 3935.52 5324.41 3932.02 5326.91C3929.22 5328.91 3880.19 5327.74 3856.02 5326.91C3843.36 5342.91 3817.52 5375.31 3815.52 5376.91C3813.52 5378.51 3730.02 5408.24 3688.52 5422.91C3685.86 5422.74 3680.02 5422.51 3678.02 5422.91C3675.52 5423.41 3636.02 5396.41 3634.52 5396.41C3633.32 5396.41 3625.69 5395.07 3622.02 5394.41L3538.02 5424.91C3534.52 5426.74 3524.22 5430.31 3511.02 5429.91C3497.82 5429.51 3446.52 5436.07 3422.52 5439.41L3386.52 5464.91C3384.36 5466.07 3379.02 5468.41 3375.02 5468.41C3371.02 5468.41 3348.36 5452.07 3337.52 5443.91C3335.02 5443.74 3329.22 5443.51 3326.02 5443.91C3322.02 5444.41 3292.52 5464.91 3285.02 5464.91C3277.52 5464.91 3194.02 5465.41 3191.52 5464.91C3189.52 5464.51 3164.36 5429.07 3152.02 5411.41L3133.52 5407.91C3125.69 5410.74 3108.42 5417.41 3102.02 5421.41C3095.62 5425.41 3023.02 5400.74 2987.52 5387.91C2984.69 5396.41 2978.02 5415.01 2974.02 5421.41C2970.02 5427.81 2918.02 5455.74 2892.52 5468.91V5491.91V5551.91L2800.52 5666.91H2678.02L2637.02 5710.41L2560.02 5745.41L2498.52 5779.41L2483.52 5856.41H2440.02L2412.02 5881.91L2373.52 5902.41L2337.52 5881.91L2268.52 5810.41H2222.52C2200.36 5820.57 2152.92 5841.41 2140.52 5843.41C2128.12 5845.41 2079.02 5801.57 2056.02 5779.41L2038.52 5810.41C1969.52 5788.74 1828.82 5745.41 1818.02 5745.41C1807.22 5745.41 1540.19 5539.74 1408.02 5436.91C1399.36 5431.91 1380.92 5421.51 1376.52 5419.91C1372.12 5418.31 1249.02 5497.24 1188.02 5536.91L1035.52 5491.91L949.022 5380.91C849.355 5352.07 647.422 5292.51 637.022 5284.91C626.622 5277.31 440.022 5288.07 348.022 5294.41C346.855 5286.91 343.522 5269.61 339.522 5260.41Z" stroke="#0032A0" stroke-width="460" mask="url(#path-11-outside-1_7_17)"/>
<path d="M8528.53 3500V2193.82H9051.51C9147.6 2193.82 9227.75 2208.07 9291.95 2236.55C9356.16 2265.04 9404.42 2304.58 9436.73 2355.18C9469.05 2405.35 9485.2 2463.18 9485.2 2528.66C9485.2 2579.68 9475 2624.54 9454.59 2663.23C9434.18 2701.5 9406.12 2732.96 9370.4 2757.62C9335.11 2781.86 9294.72 2799.08 9249.22 2809.28V2822.04C9298.97 2824.16 9345.53 2838.19 9388.9 2864.13C9432.69 2890.07 9468.2 2926.42 9495.41 2973.19C9522.62 3019.54 9536.23 3074.81 9536.23 3139.01C9536.23 3208.32 9519.01 3270.19 9484.56 3324.61C9450.55 3378.61 9400.17 3421.34 9333.41 3452.8C9266.66 3484.27 9184.38 3500 9086.59 3500H8528.53ZM8804.69 3274.22H9029.83C9106.79 3274.22 9162.91 3259.56 9198.2 3230.22C9233.49 3200.45 9251.14 3160.91 9251.14 3111.59C9251.14 3075.45 9242.42 3043.56 9224.99 3015.92C9207.55 2988.29 9182.68 2966.6 9150.37 2950.87C9118.48 2935.14 9080.42 2927.27 9036.2 2927.27H8804.69V3274.22ZM8804.69 2740.4H9009.42C9047.26 2740.4 9080.85 2733.81 9110.19 2720.63C9139.95 2707.02 9163.34 2687.89 9180.34 2663.23C9197.78 2638.57 9206.49 2609.02 9206.49 2574.58C9206.49 2527.38 9189.7 2489.33 9156.11 2460.41C9122.94 2431.5 9075.75 2417.05 9014.52 2417.05H8804.69V2740.4ZM10049.5 3519.13C9948.74 3519.13 9862 3498.72 9789.29 3457.91C9717.01 3416.66 9661.31 3358.41 9622.19 3283.15C9583.07 3207.47 9563.52 3117.97 9563.52 3014.65C9563.52 2913.88 9583.07 2825.44 9622.19 2749.33C9661.31 2673.22 9716.37 2613.91 9787.38 2571.39C9858.81 2528.87 9942.57 2507.61 10038.7 2507.61C10103.3 2507.61 10163.5 2518.03 10219.2 2538.86C10275.3 2559.27 10324.2 2590.1 10365.8 2631.34C10407.9 2672.58 10440.7 2724.46 10464.1 2786.96C10487.5 2849.04 10499.1 2921.74 10499.1 3005.08V3079.7H9671.94V2911.33H10243.4C10243.4 2872.21 10234.9 2837.56 10217.9 2807.37C10200.9 2777.18 10177.3 2753.58 10147.1 2736.57C10117.3 2719.14 10082.7 2710.42 10043.1 2710.42C10001.9 2710.42 9965.32 2719.99 9933.43 2739.13C9901.97 2757.83 9877.3 2783.13 9859.45 2815.02C9841.59 2846.49 9832.45 2881.56 9832.02 2920.26V3080.34C9832.02 3128.81 9840.95 3170.69 9858.81 3205.98C9877.09 3241.27 9902.82 3268.48 9935.98 3287.62C9969.15 3306.75 10008.5 3316.32 10054 3316.32C10084.2 3316.32 10111.8 3312.07 10136.9 3303.56C10162 3295.06 10183.4 3282.3 10201.3 3265.3C10219.2 3248.29 10232.8 3227.45 10242.1 3202.79L10493.4 3219.38C10480.6 3279.75 10454.5 3332.48 10415 3377.55C10375.8 3422.19 10325.2 3457.06 10263.2 3482.14C10201.5 3506.8 10130.3 3519.13 10049.5 3519.13ZM11089.8 2520.37V2724.46H10499.8V2520.37H11089.8ZM10633.7 2285.66H10905.4V3198.97C10905.4 3224.05 10909.3 3243.61 10916.9 3257.64C10924.6 3271.25 10935.2 3280.81 10948.8 3286.34C10962.8 3291.87 10979 3294.63 10997.3 3294.63C11010 3294.63 11022.8 3293.57 11035.5 3291.44C11048.3 3288.89 11058.1 3286.98 11064.9 3285.7L11107.6 3487.88C11094 3492.13 11074.9 3497.02 11050.2 3502.55C11025.6 3508.5 10995.6 3512.12 10960.3 3513.39C10894.8 3515.94 10837.4 3507.23 10788.1 3487.24C10739.2 3467.26 10701.1 3436.22 10673.9 3394.13C10646.7 3352.03 10633.3 3298.89 10633.7 3234.68V2285.66ZM11680 2520.37V2724.46H11090.1V2520.37H11680ZM11224 2285.66H11495.7V3198.97C11495.7 3224.05 11499.6 3243.61 11507.2 3257.64C11514.9 3271.25 11525.5 3280.81 11539.1 3286.34C11553.1 3291.87 11569.3 3294.63 11587.6 3294.63C11600.3 3294.63 11613.1 3293.57 11625.8 3291.44C11638.6 3288.89 11648.4 3286.98 11655.2 3285.7L11697.9 3487.88C11684.3 3492.13 11665.2 3497.02 11640.5 3502.55C11615.8 3508.5 11585.9 3512.12 11550.6 3513.39C11485.1 3515.94 11427.7 3507.23 11378.4 3487.24C11329.5 3467.26 11291.4 3436.22 11264.2 3394.13C11237 3352.03 11223.6 3298.89 11224 3234.68V2285.66ZM12185.2 3519.13C12084.4 3519.13 11997.7 3498.72 11925 3457.91C11852.7 3416.66 11797 3358.41 11757.9 3283.15C11718.8 3207.47 11699.2 3117.97 11699.2 3014.65C11699.2 2913.88 11718.8 2825.44 11757.9 2749.33C11797 2673.22 11852.1 2613.91 11923.1 2571.39C11994.5 2528.87 12078.3 2507.61 12174.4 2507.61C12239 2507.61 12299.1 2518.03 12354.8 2538.86C12411 2559.27 12459.9 2590.1 12501.5 2631.34C12543.6 2672.58 12576.4 2724.46 12599.8 2786.96C12623.1 2849.04 12634.8 2921.74 12634.8 3005.08V3079.7H11807.6V2911.33H12379.1C12379.1 2872.21 12370.6 2837.56 12353.6 2807.37C12336.6 2777.18 12313 2753.58 12282.8 2736.57C12253 2719.14 12218.4 2710.42 12178.8 2710.42C12137.6 2710.42 12101 2719.99 12069.1 2739.13C12037.7 2757.83 12013 2783.13 11995.1 2815.02C11977.3 2846.49 11968.1 2881.56 11967.7 2920.26V3080.34C11967.7 3128.81 11976.6 3170.69 11994.5 3205.98C12012.8 3241.27 12038.5 3268.48 12071.7 3287.62C12104.8 3306.75 12144.2 3316.32 12189.7 3316.32C12219.8 3316.32 12247.5 3312.07 12272.6 3303.56C12297.7 3295.06 12319.1 3282.3 12337 3265.3C12354.8 3248.29 12368.5 3227.45 12377.8 3202.79L12629.1 3219.38C12616.3 3279.75 12590.2 3332.48 12550.6 3377.55C12511.5 3422.19 12460.9 3457.06 12398.9 3482.14C12337.2 3506.8 12266 3519.13 12185.2 3519.13ZM12704.4 3500V2520.37H12967.8V2691.29H12978C12995.8 2630.49 13025.8 2584.57 13067.9 2553.53C13110 2522.07 13158.5 2506.33 13213.3 2506.33C13226.9 2506.33 13241.6 2507.19 13257.3 2508.89C13273.1 2510.59 13286.9 2512.93 13298.8 2515.9V2756.98C13286 2753.16 13268.4 2749.75 13245.9 2746.78C13223.3 2743.8 13202.7 2742.31 13184 2742.31C13144 2742.31 13108.3 2751.03 13076.8 2768.46C13045.8 2785.47 13021.1 2809.28 13002.9 2839.89C12985 2870.51 12976.1 2905.8 12976.1 2945.77V3500H12704.4Z" fill="white"/>
<path d="M9681 4485.11H9401.65C9396.55 4448.97 9386.13 4416.87 9370.4 4388.81C9354.67 4360.32 9334.47 4336.08 9309.81 4316.1C9285.15 4296.12 9256.66 4280.81 9224.35 4270.18C9192.46 4259.55 9157.81 4254.23 9120.39 4254.23C9052.79 4254.23 8993.9 4271.03 8943.73 4304.62C8893.55 4337.78 8854.65 4386.25 8827.01 4450.03C8799.37 4513.39 8785.56 4590.35 8785.56 4680.91C8785.56 4774.03 8799.37 4852.26 8827.01 4915.61C8855.07 4978.97 8894.19 5026.8 8944.36 5059.12C8994.54 5091.43 9052.57 5107.59 9118.48 5107.59C9155.47 5107.59 9189.7 5102.7 9221.16 5092.92C9253.05 5083.14 9281.32 5068.89 9305.99 5050.19C9330.65 5031.05 9351.06 5007.88 9367.21 4980.67C9383.8 4953.46 9395.28 4922.42 9401.65 4887.55L9681 4888.83C9673.77 4948.78 9655.7 5006.6 9626.79 5062.3C9598.3 5117.58 9559.82 5167.11 9511.35 5210.91C9463.31 5254.28 9405.91 5288.72 9339.15 5314.23C9272.82 5339.31 9197.78 5351.86 9114.01 5351.86C8997.51 5351.86 8893.34 5325.5 8801.5 5272.77C8710.08 5220.05 8637.8 5143.73 8584.65 5043.81C8531.93 4943.89 8505.57 4822.92 8505.57 4680.91C8505.57 4538.47 8532.36 4417.29 8585.93 4317.37C8639.5 4217.46 8712.21 4141.35 8804.05 4089.05C8895.89 4036.33 8999.21 4009.96 9114.01 4009.96C9189.7 4009.96 9259.85 4020.59 9324.48 4041.85C9389.54 4063.11 9447.15 4094.15 9497.32 4134.97C9547.49 4175.36 9588.31 4224.9 9619.77 4283.57C9651.66 4342.25 9672.07 4409.43 9681 4485.11ZM10045.5 5352.5C9983.02 5352.5 9927.32 5341.65 9878.42 5319.97C9829.52 5297.86 9790.83 5265.33 9762.34 5222.39C9734.28 5179.02 9720.25 5125.02 9720.25 5060.39C9720.25 5005.97 9730.24 4960.26 9750.23 4923.27C9770.21 4886.28 9797.42 4856.51 9831.86 4833.98C9866.3 4811.44 9905.42 4794.44 9949.21 4782.96C9993.43 4771.48 10039.8 4763.4 10088.3 4758.72C10145.2 4752.77 10191.1 4747.24 10226 4742.14C10260.9 4736.61 10286.2 4728.53 10301.9 4717.9C10317.6 4707.27 10325.5 4691.54 10325.5 4670.71V4666.88C10325.5 4626.49 10312.8 4595.23 10287.2 4573.13C10262.2 4551.02 10226.4 4539.96 10180.1 4539.96C10131.2 4539.96 10092.3 4550.8 10063.4 4572.49C10034.5 4593.75 10015.3 4620.53 10006 4652.85L9754.69 4632.44C9767.45 4572.91 9792.53 4521.46 9829.95 4478.1C9867.37 4434.3 9915.62 4400.71 9974.73 4377.33C10034.3 4353.52 10103.1 4341.61 10181.4 4341.61C10235.8 4341.61 10287.9 4347.99 10337.6 4360.74C10387.8 4373.5 10432.2 4393.27 10470.9 4420.06C10510 4446.84 10540.9 4481.28 10563.4 4523.38C10585.9 4565.05 10597.2 4615.01 10597.2 4673.26V5334H10339.5V5198.15H10331.9C10316.2 5228.77 10295.1 5255.76 10268.7 5279.15C10242.4 5302.11 10210.7 5320.18 10173.7 5333.36C10136.7 5346.12 10094 5352.5 10045.5 5352.5ZM10123.3 5164.99C10163.3 5164.99 10198.6 5157.12 10229.2 5141.39C10259.8 5125.23 10283.8 5103.55 10301.3 5076.34C10318.7 5049.12 10327.4 5018.3 10327.4 4983.86V4879.9C10318.9 4885.43 10307.2 4890.53 10292.3 4895.21C10277.9 4899.46 10261.5 4903.5 10243.2 4907.32C10224.9 4910.72 10206.7 4913.91 10188.4 4916.89C10170.1 4919.44 10153.5 4921.78 10138.6 4923.91C10106.7 4928.58 10078.9 4936.02 10055.1 4946.23C10031.3 4956.43 10012.8 4970.25 9999.6 4987.68C9986.42 5004.69 9979.83 5025.95 9979.83 5051.46C9979.83 5088.45 9993.22 5116.73 10020 5136.29C10047.2 5155.42 10081.7 5164.99 10123.3 5164.99ZM10705.3 5334V4027.82H10977V4518.91H10985.3C10997.2 4492.55 11014.4 4465.77 11037 4438.55C11059.9 4410.92 11089.7 4387.96 11126.3 4369.67C11163.3 4350.96 11209.2 4341.61 11264 4341.61C11335.5 4341.61 11401.4 4360.32 11461.7 4397.74C11522.1 4434.73 11570.4 4490.64 11606.5 4565.47C11642.7 4639.88 11660.7 4733.21 11660.7 4845.46C11660.7 4954.73 11643.1 5047 11607.8 5122.26C11572.9 5197.09 11525.3 5253.85 11464.9 5292.54C11405 5330.81 11337.8 5349.94 11263.4 5349.94C11210.7 5349.94 11165.8 5341.23 11128.8 5323.79C11092.3 5306.36 11062.3 5284.47 11038.9 5258.1C11015.5 5231.32 10997.6 5204.32 10985.3 5177.11H10973.2V5334H10705.3ZM10971.3 4844.18C10971.3 4902.43 10979.4 4953.24 10995.5 4996.61C11011.7 5039.98 11035.1 5073.78 11065.7 5098.02C11096.3 5121.83 11133.5 5133.74 11177.3 5133.74C11221.5 5133.74 11258.9 5121.62 11289.5 5097.38C11320.2 5072.72 11343.3 5038.71 11359.1 4995.34C11375.2 4951.54 11383.3 4901.16 11383.3 4844.18C11383.3 4787.63 11375.4 4737.89 11359.7 4694.94C11344 4652 11320.8 4618.41 11290.2 4594.17C11259.6 4569.94 11221.9 4557.82 11177.3 4557.82C11133.1 4557.82 11095.7 4569.51 11065 4592.9C11034.9 4616.28 11011.7 4649.45 10995.5 4692.39C10979.4 4735.33 10971.3 4785.93 10971.3 4844.18ZM12013.6 5352.5C11951.1 5352.5 11895.4 5341.65 11846.5 5319.97C11797.6 5297.86 11758.9 5265.33 11730.4 5222.39C11702.4 5179.02 11688.3 5125.02 11688.3 5060.39C11688.3 5005.97 11698.3 4960.26 11718.3 4923.27C11738.3 4886.28 11765.5 4856.51 11800 4833.98C11834.4 4811.44 11873.5 4794.44 11917.3 4782.96C11961.5 4771.48 12007.9 4763.4 12056.3 4758.72C12113.3 4752.77 12159.2 4747.24 12194.1 4742.14C12229 4736.61 12254.3 4728.53 12270 4717.9C12285.7 4707.27 12293.6 4691.54 12293.6 4670.71V4666.88C12293.6 4626.49 12280.8 4595.23 12255.3 4573.13C12230.2 4551.02 12194.5 4539.96 12148.2 4539.96C12099.3 4539.96 12060.4 4550.8 12031.5 4572.49C12002.6 4593.75 11983.4 4620.53 11974.1 4652.85L11722.8 4632.44C11735.5 4572.91 11760.6 4521.46 11798 4478.1C11835.5 4434.3 11883.7 4400.71 11942.8 4377.33C12002.3 4353.52 12071.2 4341.61 12149.5 4341.61C12203.9 4341.61 12256 4347.99 12305.7 4360.74C12355.9 4373.5 12400.3 4393.27 12439 4420.06C12478.1 4446.84 12509 4481.28 12531.5 4523.38C12554 4565.05 12565.3 4615.01 12565.3 4673.26V5334H12307.6V5198.15H12300C12284.2 5228.77 12263.2 5255.76 12236.8 5279.15C12210.5 5302.11 12178.8 5320.18 12141.8 5333.36C12104.8 5346.12 12062.1 5352.5 12013.6 5352.5ZM12091.4 5164.99C12131.4 5164.99 12166.7 5157.12 12197.3 5141.39C12227.9 5125.23 12251.9 5103.55 12269.4 5076.34C12286.8 5049.12 12295.5 5018.3 12295.5 4983.86V4879.9C12287 4885.43 12275.3 4890.53 12260.4 4895.21C12246 4899.46 12229.6 4903.5 12211.3 4907.32C12193 4910.72 12174.8 4913.91 12156.5 4916.89C12138.2 4919.44 12121.6 4921.78 12106.7 4923.91C12074.8 4928.58 12047 4936.02 12023.2 4946.23C11999.4 4956.43 11980.9 4970.25 11967.7 4987.68C11954.5 5004.69 11947.9 5025.95 11947.9 5051.46C11947.9 5088.45 11961.3 5116.73 11988.1 5136.29C12015.3 5155.42 12049.7 5164.99 12091.4 5164.99ZM12940 4767.65V5334H12668.3V4354.37H12927.3V4527.2H12938.7C12960.4 4470.23 12996.8 4425.16 13047.8 4391.99C13098.8 4358.41 13160.7 4341.61 13233.4 4341.61C13301.4 4341.61 13360.7 4356.49 13411.3 4386.25C13461.9 4416.02 13501.3 4458.54 13529.3 4513.81C13557.4 4568.66 13571.4 4634.14 13571.4 4710.25V5334H13299.7V4758.72C13300.1 4698.77 13284.8 4652 13253.8 4618.41C13222.8 4584.39 13180 4567.39 13125.6 4567.39C13089 4567.39 13056.7 4575.25 13028.7 4590.98C13001 4606.72 12979.3 4629.68 12963.6 4659.86C12948.3 4689.63 12940.4 4725.56 12940 4767.65ZM13957.1 5352.5C13894.6 5352.5 13838.9 5341.65 13790 5319.97C13741.1 5297.86 13702.5 5265.33 13674 5222.39C13645.9 5179.02 13631.9 5125.02 13631.9 5060.39C13631.9 5005.97 13641.9 4960.26 13661.8 4923.27C13681.8 4886.28 13709 4856.51 13743.5 4833.98C13777.9 4811.44 13817 4794.44 13860.8 4782.96C13905.1 4771.48 13951.4 4763.4 13999.9 4758.72C14056.8 4752.77 14102.8 4747.24 14137.6 4742.14C14172.5 4736.61 14197.8 4728.53 14213.5 4717.9C14229.3 4707.27 14237.1 4691.54 14237.1 4670.71V4666.88C14237.1 4626.49 14224.4 4595.23 14198.9 4573.13C14173.8 4551.02 14138.1 4539.96 14091.7 4539.96C14042.8 4539.96 14003.9 4550.8 13975 4572.49C13946.1 4593.75 13927 4620.53 13917.6 4652.85L13666.3 4632.44C13679.1 4572.91 13704.2 4521.46 13741.6 4478.1C13779 4434.3 13827.2 4400.71 13886.3 4377.33C13945.9 4353.52 14014.8 4341.61 14093 4341.61C14147.4 4341.61 14199.5 4347.99 14249.2 4360.74C14299.4 4373.5 14343.8 4393.27 14382.5 4420.06C14421.7 4446.84 14452.5 4481.28 14475 4523.38C14497.6 4565.05 14508.8 4615.01 14508.8 4673.26V5334H14251.2V5198.15H14243.5C14227.8 5228.77 14206.7 5255.76 14180.4 5279.15C14154 5302.11 14122.3 5320.18 14085.3 5333.36C14048.3 5346.12 14005.6 5352.5 13957.1 5352.5ZM14035 5164.99C14074.9 5164.99 14110.2 5157.12 14140.8 5141.39C14171.4 5125.23 14195.5 5103.55 14212.9 5076.34C14230.3 5049.12 14239 5018.3 14239 4983.86V4879.9C14230.5 4885.43 14218.8 4890.53 14204 4895.21C14189.5 4899.46 14173.1 4903.5 14154.9 4907.32C14136.6 4910.72 14118.3 4913.91 14100 4916.89C14081.7 4919.44 14065.1 4921.78 14050.3 4923.91C14018.4 4928.58 13990.5 4936.02 13966.7 4946.23C13942.9 4956.43 13924.4 4970.25 13911.2 4987.68C13898 5004.69 13891.4 5025.95 13891.4 5051.46C13891.4 5088.45 13904.8 5116.73 13931.6 5136.29C13958.8 5155.42 13993.3 5164.99 14035 5164.99ZM15132.9 4354.37V4558.46H14543V4354.37H15132.9ZM14676.9 4119.66H14948.6V5032.97C14948.6 5058.05 14952.4 5077.61 14960.1 5091.64C14967.7 5105.25 14978.4 5114.81 14992 5120.34C15006 5125.87 15022.2 5128.63 15040.4 5128.63C15053.2 5128.63 15066 5127.57 15078.7 5125.44C15091.5 5122.89 15101.2 5120.98 15108 5119.7L15150.8 5321.88C15137.2 5326.13 15118 5331.02 15093.4 5336.55C15068.7 5342.5 15038.7 5346.12 15003.4 5347.39C14938 5349.94 14880.6 5341.23 14831.2 5321.24C14782.4 5301.26 14744.3 5270.22 14717.1 5228.13C14689.9 5186.03 14676.5 5132.89 14676.9 5068.68V4119.66ZM15830.4 4916.89V4354.37H16102.1V5334H15841.2V5156.06H15831C15808.9 5213.46 15772.1 5259.59 15720.7 5294.46C15669.6 5329.32 15607.3 5346.76 15533.8 5346.76C15468.3 5346.76 15410.7 5331.87 15361 5302.11C15311.2 5272.35 15272.3 5230.04 15244.2 5175.19C15216.6 5120.34 15202.6 5054.65 15202.1 4978.12V4354.37H15473.8V4929.65C15474.3 4987.47 15489.8 5033.18 15520.4 5066.77C15551 5100.36 15592 5117.15 15643.5 5117.15C15676.2 5117.15 15706.8 5109.71 15735.3 5094.83C15763.8 5079.52 15786.8 5056.99 15804.2 5027.23C15822.1 4997.46 15830.8 4960.68 15830.4 4916.89ZM16491 5352.5C16428.5 5352.5 16372.8 5341.65 16323.9 5319.97C16275 5297.86 16236.3 5265.33 16207.8 5222.39C16179.7 5179.02 16165.7 5125.02 16165.7 5060.39C16165.7 5005.97 16175.7 4960.26 16195.7 4923.27C16215.7 4886.28 16242.9 4856.51 16277.3 4833.98C16311.8 4811.44 16350.9 4794.44 16394.7 4782.96C16438.9 4771.48 16485.2 4763.4 16533.7 4758.72C16590.7 4752.77 16636.6 4747.24 16671.5 4742.14C16706.3 4736.61 16731.6 4728.53 16747.4 4717.9C16763.1 4707.27 16771 4691.54 16771 4670.71V4666.88C16771 4626.49 16758.2 4595.23 16732.7 4573.13C16707.6 4551.02 16671.9 4539.96 16625.5 4539.96C16576.6 4539.96 16537.7 4550.8 16508.8 4572.49C16479.9 4593.75 16460.8 4620.53 16451.4 4652.85L16200.1 4632.44C16212.9 4572.91 16238 4521.46 16275.4 4478.1C16312.8 4434.3 16361.1 4400.71 16420.2 4377.33C16479.7 4353.52 16548.6 4341.61 16626.8 4341.61C16681.2 4341.61 16733.3 4347.99 16783.1 4360.74C16833.2 4373.5 16877.7 4393.27 16916.4 4420.06C16955.5 4446.84 16986.3 4481.28 17008.8 4523.38C17031.4 4565.05 17042.6 4615.01 17042.6 4673.26V5334H16785V5198.15H16777.3C16761.6 5228.77 16740.6 5255.76 16714.2 5279.15C16687.8 5302.11 16656.2 5320.18 16619.2 5333.36C16582.2 5346.12 16539.4 5352.5 16491 5352.5ZM16568.8 5164.99C16608.7 5164.99 16644 5157.12 16674.6 5141.39C16705.3 5125.23 16729.3 5103.55 16746.7 5076.34C16764.2 5049.12 16772.9 5018.3 16772.9 4983.86V4879.9C16764.4 4885.43 16752.7 4890.53 16737.8 4895.21C16723.3 4899.46 16707 4903.5 16688.7 4907.32C16670.4 4910.72 16652.1 4913.91 16633.8 4916.89C16615.5 4919.44 16599 4921.78 16584.1 4923.91C16552.2 4928.58 16524.3 4936.02 16500.5 4946.23C16476.7 4956.43 16458.2 4970.25 16445 4987.68C16431.9 5004.69 16425.3 5025.95 16425.3 5051.46C16425.3 5088.45 16438.7 5116.73 16465.5 5136.29C16492.7 5155.42 16527.1 5164.99 16568.8 5164.99ZM17417.4 4767.65V5334H17145.7V4354.37H17404.6V4527.2H17416.1C17437.8 4470.23 17474.1 4425.16 17525.2 4391.99C17576.2 4358.41 17638 4341.61 17710.8 4341.61C17778.8 4341.61 17838.1 4356.49 17888.7 4386.25C17939.3 4416.02 17978.6 4458.54 18006.7 4513.81C18034.7 4568.66 18048.8 4634.14 18048.8 4710.25V5334H17777.1V4758.72C17777.5 4698.77 17762.2 4652 17731.2 4618.41C17700.1 4584.39 17657.4 4567.39 17603 4567.39C17566.4 4567.39 17534.1 4575.25 17506 4590.98C17478.4 4606.72 17456.7 4629.68 17441 4659.86C17425.7 4689.63 17417.8 4725.56 17417.4 4767.65Z" fill="#F2C91D"/>
<path d="M16791.2 6390.74C16775.5 6390.74 16762 6385.1 16750.7 6373.84C16739.4 6362.57 16733.8 6349.07 16733.8 6333.34C16733.8 6317.61 16739.4 6304.11 16750.7 6292.84C16762 6281.57 16775.5 6275.94 16791.2 6275.94C16806.9 6275.94 16820.4 6281.57 16831.7 6292.84C16843 6304.11 16848.6 6317.61 16848.6 6333.34C16848.6 6343.76 16845.9 6353.32 16840.6 6362.04C16835.5 6370.75 16828.6 6377.77 16819.9 6383.09C16811.4 6388.19 16801.8 6390.74 16791.2 6390.74ZM17128.8 6395.84C17084.5 6395.84 17045.7 6385.32 17012.4 6364.27C16979.2 6343.22 16953.3 6313.78 16934.5 6275.94C16916.1 6238.1 16906.8 6193.88 16906.8 6143.28C16906.8 6092.26 16916.1 6047.72 16934.5 6009.66C16953.3 5971.61 16979.2 5942.06 17012.4 5921.01C17045.7 5899.96 17084.5 5889.44 17128.8 5889.44C17173 5889.44 17211.7 5899.96 17244.8 5921.01C17278.2 5942.06 17304.1 5971.61 17322.6 6009.66C17341.3 6047.72 17350.7 6092.26 17350.7 6143.28C17350.7 6193.88 17341.3 6238.1 17322.6 6275.94C17304.1 6313.78 17278.2 6343.22 17244.8 6364.27C17211.7 6385.32 17173 6395.84 17128.8 6395.84ZM17128.8 6328.24C17162.3 6328.24 17190 6319.63 17211.7 6302.41C17233.4 6285.19 17249.4 6262.54 17259.8 6234.48C17270.2 6206.42 17275.4 6176.02 17275.4 6143.28C17275.4 6110.54 17270.2 6080.03 17259.8 6051.76C17249.4 6023.48 17233.4 6000.63 17211.7 5983.2C17190 5965.76 17162.3 5957.05 17128.8 5957.05C17095.2 5957.05 17067.5 5965.76 17045.8 5983.2C17024.2 6000.63 17008.1 6023.48 16997.7 6051.76C16987.3 6080.03 16982.1 6110.54 16982.1 6143.28C16982.1 6176.02 16987.3 6206.42 16997.7 6234.48C17008.1 6262.54 17024.2 6285.19 17045.8 6302.41C17067.5 6319.63 17095.2 6328.24 17128.8 6328.24ZM17411.7 6385.64V5895.82H17484.4V5969.8H17489.5C17498.4 5945.57 17514.6 5925.9 17538 5910.81C17561.4 5895.71 17587.7 5888.17 17617.1 5888.17C17622.6 5888.17 17629.5 5888.27 17637.8 5888.48C17646.1 5888.7 17652.4 5889.02 17656.6 5889.44V5965.98C17654.1 5965.34 17648.2 5964.38 17639.1 5963.1C17630.1 5961.62 17620.7 5960.87 17610.7 5960.87C17586.9 5960.87 17565.6 5965.87 17546.9 5975.86C17528.4 5985.64 17513.7 5999.25 17502.9 6016.68C17492.3 6033.9 17487 6053.56 17487 6075.67V6385.64H17411.7ZM17874.7 6579.52C17838.4 6579.52 17807.1 6574.85 17781 6565.49C17754.8 6556.35 17733.1 6544.23 17715.6 6529.14C17698.4 6514.26 17684.7 6498.31 17674.5 6481.3L17734.4 6439.21C17741.2 6448.14 17749.8 6458.34 17760.3 6469.82C17770.7 6481.52 17784.9 6491.61 17803 6500.12C17821.3 6508.83 17845.2 6513.19 17874.7 6513.19C17914.3 6513.19 17946.9 6503.63 17972.6 6484.49C17998.4 6465.36 18011.2 6435.38 18011.2 6394.57V6295.07H18004.9C17999.3 6304 17991.5 6315.05 17981.3 6328.24C17971.3 6341.2 17956.8 6352.79 17937.9 6362.99C17919.2 6372.99 17893.9 6377.98 17862 6377.98C17822.4 6377.98 17786.9 6368.63 17755.5 6349.92C17724.2 6331.21 17699.5 6304 17681.2 6268.28C17663.1 6232.57 17654.1 6189.2 17654.1 6138.18C17654.1 6088 17662.9 6044.32 17680.5 6007.11C17698.2 5969.7 17722.7 5940.78 17754.2 5920.37C17785.7 5899.75 17822 5889.44 17863.3 5889.44C17895.2 5889.44 17920.5 5894.76 17939.2 5905.39C17958.1 5915.8 17972.5 5927.71 17982.5 5941.1C17992.7 5954.28 18000.6 5965.12 18006.1 5973.63H18013.8V5895.82H18086.5V6399.67C18086.5 6441.76 18076.9 6475.99 18057.8 6502.35C18038.9 6528.92 18013.4 6548.38 17981.3 6560.71C17949.4 6573.25 17913.9 6579.52 17874.7 6579.52ZM17872.2 6310.38C17902.4 6310.38 17927.9 6303.47 17948.7 6289.65C17969.6 6275.83 17985.4 6255.95 17996.2 6230.02C18007.1 6204.08 18012.5 6173.04 18012.5 6136.9C18012.5 6101.61 18007.2 6070.47 17996.6 6043.47C17985.9 6016.47 17970.2 5995.31 17949.4 5980.01C17928.5 5964.7 17902.8 5957.05 17872.2 5957.05C17840.3 5957.05 17813.7 5965.12 17792.5 5981.28C17771.4 5997.44 17755.6 6019.12 17745 6046.34C17734.5 6073.55 17729.3 6103.74 17729.3 6136.9C17729.3 6170.92 17734.6 6201 17745.3 6227.15C17756.1 6253.08 17772.1 6273.49 17793.1 6288.37C17814.4 6303.04 17840.7 6310.38 17872.2 6310.38Z" fill="white"/>
</svg>
